<?xml version="1.0" encoding="utf-8"?>
<!-- Generator: Adobe Illustrator 16.0.4, SVG Export Plug-In . SVG Version: 6.00 Build 0)  -->
<!DOCTYPE svg PUBLIC "-//W3C//DTD SVG 1.1//EN" "http://www.w3.org/Graphics/SVG/1.1/DTD/svg11.dtd">
<svg version="1.1" id="Layer_1" xmlns="http://www.w3.org/2000/svg" xmlns:xlink="http://www.w3.org/1999/xlink" x="0px" y="0px"
	 width="512px" height="512px" viewBox="0 0 512 512" enable-background="new 0 0 512 512" xml:space="preserve">
<path fill="#206FB6" d="M256,503.472c-66.105,0-128.252-25.74-174.992-72.479C34.27,384.253,8.529,322.106,8.529,256.001
	c0-66.106,25.74-128.253,72.479-174.992C127.748,34.27,189.895,8.528,256,8.528s128.252,25.741,174.992,72.48
	c46.738,46.739,72.479,108.886,72.479,174.992c0,66.105-25.74,128.252-72.479,174.991C384.252,477.731,322.105,503.472,256,503.472z
	 M256,21.528c-62.633,0-121.516,24.389-165.799,68.673s-68.672,103.166-68.672,165.8c0,62.633,24.389,121.515,68.672,165.799
	c44.283,44.283,103.166,68.672,165.799,68.672s121.516-24.389,165.799-68.672c44.283-44.284,68.672-103.166,68.672-165.799
	c0-62.634-24.389-121.516-68.672-165.8S318.633,21.528,256,21.528z"/>
<rect x="4" y="6.131" fill="none" width="498.87" height="498.869"/>
<path fill="#206FB6" d="M333.641,193.893c-4.273,4.273-11.221,4.273-15.541,0c-4.272-4.304-4.272-11.236,0-15.509
	c4.32-4.368,11.268-4.305,15.541,0C337.962,182.657,337.962,189.588,333.641,193.893 M333.641,224.942
	c-4.305,4.305-11.221,4.305-15.541,0c-4.272-4.304-4.272-11.236,0-15.541c4.32-4.273,11.268-4.273,15.541,0
	C337.962,213.707,337.962,220.638,333.641,224.942 M306.452,252.131l-54.377,54.345c-2.152,2.152-5.634,2.152-7.786,0
	l-38.805-38.836c-2.12-2.152-2.12-5.635,0-7.756l54.377-54.376c2.121-2.121,5.603-2.121,7.755,0l38.836,38.868
	C308.604,246.497,308.604,249.979,306.452,252.131 M224.887,333.633c-4.272,4.305-11.188,4.336-15.509,0
	c-4.273-4.273-4.273-11.236,0-15.51c4.288-4.271,11.236-4.271,15.509,0C229.208,322.428,229.208,329.359,224.887,333.633
	 M287.019,178.384c4.353-4.368,11.299-4.305,15.572,0c4.289,4.273,4.289,11.205,0,15.509c-4.305,4.273-11.22,4.273-15.572,0
	C282.777,189.588,282.714,182.657,287.019,178.384 M193.868,302.615c-4.336,4.271-11.299,4.271-15.54,0
	c-4.337-4.305-4.337-11.236,0-15.51c4.241-4.367,11.204-4.367,15.54,0C198.156,291.379,198.156,298.311,193.868,302.615
	 M193.868,333.664c-4.336,4.273-11.299,4.305-15.54,0c-4.337-4.271-4.337-11.268,0-15.541c4.241-4.271,11.204-4.271,15.54,0
	C198.156,322.396,198.156,329.393,193.868,333.664 M349.182,162.78c-21.46-21.428-56.213-21.428-77.704,0L162.818,271.564
	c-21.491,21.428-21.491,56.213,0,77.641c21.428,21.459,56.149,21.459,77.609,0l108.754-108.722
	C370.641,219.056,370.641,184.239,349.182,162.78"/>
<path fill="#206FB6" d="M171.871,249.567l12.882-12.882l-9.084-9.084c-6.915-6.963-10.761-16.142-10.761-25.954
	c0-9.829,3.846-18.991,10.761-25.954c6.9-6.932,16.143-10.762,25.954-10.762s19.022,3.83,25.969,10.762l9.037,9.084l12.914-12.882
	l-9.115-9.115c-10.729-10.667-24.752-16.047-38.805-16.047s-28.091,5.381-38.805,16.047c-21.491,21.459-21.491,56.276,0,77.704
	L171.871,249.567z"/>
<path fill="#206FB6" d="M340.098,262.449l-12.914,12.85l9.132,9.1c6.947,6.98,10.762,16.158,10.762,25.971
	s-3.814,19.023-10.762,25.955c-6.948,6.963-16.142,10.76-25.971,10.76c-9.795,0-19.022-3.797-25.954-10.76l-9.115-9.117
	l-12.882,12.914l9.101,9.084c10.762,10.699,24.798,16.08,38.851,16.08c14.085,0,28.075-5.381,38.852-16.08
	c21.46-21.428,21.46-56.213,0-77.656L340.098,262.449z"/>
<rect x="146.708" y="146.701" fill="none" width="218.584" height="218.598"/>
</svg>
