<?xml version="1.0" encoding="utf-8"?>
<!-- Generator: Adobe Illustrator 16.0.4, SVG Export Plug-In . SVG Version: 6.00 Build 0)  -->
<!DOCTYPE svg PUBLIC "-//W3C//DTD SVG 1.1//EN" "http://www.w3.org/Graphics/SVG/1.1/DTD/svg11.dtd">
<svg version="1.1" id="Layer_1" xmlns="http://www.w3.org/2000/svg" xmlns:xlink="http://www.w3.org/1999/xlink" x="0px" y="0px"
	 width="512px" height="512px" viewBox="0 0 512 512" enable-background="new 0 0 512 512" xml:space="preserve">
<path fill="#206FB6" stroke="#0098E9" stroke-width="13" d="M256,501.049c-135.306,0-245.027-109.681-245.027-245.024
	C10.973,120.721,120.694,10.951,256,10.951s245.027,109.77,245.027,245.073C501.027,391.368,391.306,501.049,256,501.049"/>
<path fill="#FFFFFF" d="M193.188,398.262c-4.092,0-8.168-1.664-11.13-4.938c-5.557-6.144-5.081-15.629,1.063-21.187l123.386-111.601
	L173.069,139.864c-6.145-5.557-6.621-15.042-1.064-21.187c5.555-6.144,15.041-6.621,21.186-1.064l158.042,142.921L203.245,394.387
	C200.375,396.982,196.775,398.262,193.188,398.262z"/>
</svg>
