<?xml version="1.0" encoding="utf-8"?>
<!-- Generator: Adobe Illustrator 16.0.4, SVG Export Plug-In . SVG Version: 6.00 Build 0)  -->
<!DOCTYPE svg PUBLIC "-//W3C//DTD SVG 1.1//EN" "http://www.w3.org/Graphics/SVG/1.1/DTD/svg11.dtd">
<svg version="1.1" id="Layer_1" xmlns="http://www.w3.org/2000/svg" xmlns:xlink="http://www.w3.org/1999/xlink" x="0px" y="0px"
	 width="512px" height="512px" viewBox="0 0 512 512" enable-background="new 0 0 512 512" xml:space="preserve">
<path fill="#206FB6" d="M256,503.472c-66.105,0-128.252-25.74-174.992-72.479C34.27,384.253,8.529,322.106,8.529,256.001
	c0-66.106,25.74-128.253,72.479-174.992C127.748,34.27,189.895,8.528,256,8.528s128.252,25.741,174.992,72.48
	c46.738,46.739,72.479,108.886,72.479,174.992c0,66.105-25.74,128.252-72.479,174.991C384.252,477.731,322.105,503.472,256,503.472z
	 M256,21.528c-62.633,0-121.516,24.389-165.799,68.673s-68.672,103.166-68.672,165.8c0,62.633,24.389,121.515,68.672,165.799
	c44.283,44.283,103.166,68.672,165.799,68.672s121.516-24.389,165.799-68.672c44.283-44.284,68.672-103.166,68.672-165.799
	c0-62.634-24.389-121.516-68.672-165.8S318.633,21.528,256,21.528z"/>
<rect x="4" y="6.131" fill="none" width="498.87" height="498.869"/>
<path fill="#206FB6" d="M308.963,350.134l17.42-13.122c1.877-1.372,2.457-3.95,1.449-5.992l-8.154-16.176l7.24-7.194
	c1.678-1.644,1.922-4.28,0.457-6.199l-0.211-0.446c9.707,6.252,14.51,12.883,16.66,17.196c5.623,11.278,7.576,19.631,8.246,23.81
	C346.43,344.689,331.613,347.939,308.963,350.134 M311.295,295.304l5.9,8.385l-6.709,6.753c-1.523,1.461-1.859,3.733-0.93,5.594
	l7.775,15.686l-26.219,19.753c-3.078,0.171-6.115,0.321-9.314,0.459L311.295,295.304z M168.146,318.2
	c2.105-4.313,6.92-10.944,16.707-17.196l-0.352,0.446c-1.34,1.919-1.051,4.556,0.504,6.199l7.209,7.194l-8.033,16.176
	c-1.082,2.042-0.52,4.62,1.402,5.992l17.438,13.122c-22.619-2.194-37.451-5.444-43.152-8.124
	C160.539,337.756,162.537,329.449,168.146,318.2 M230.172,351.933c-3.264-0.138-6.266-0.288-9.283-0.459l-26.311-19.753
	l7.865-15.686c0.898-1.86,0.578-4.133-0.914-5.594l-6.799-6.753l5.854-8.354L230.172,351.933z M361.123,309.558
	c-8.322-16.584-26.414-29.664-50.973-36.95c-4.361-1.28-9.146,0.702-11.248,4.803l-39.145,74.996h-7.594l-39.156-74.996
	c-2.09-4.072-6.875-6.035-11.326-4.77c-24.48,7.253-42.59,20.359-50.76,36.917c-10.396,20.713-10.67,33.961-10.67,35.409
	c0,16.69,35.545,25.64,105.664,26.72h0.443h0.168c3.08,0.062,6.311,0.062,9.449,0.062c3.232,0,6.312,0,9.48-0.062h0.184h0.168
	c70.301-1.021,105.939-10.029,105.939-26.72C371.748,343.519,371.398,330.271,361.123,309.558"/>
<path fill="#206FB6" d="M315.182,225.17c-1.602,4.36-3.947,7.438-6.373,9.786c1.342-6.523,3.096-15.655,4.162-22.285
	c1.205,0.609,2.119,1.312,2.684,2.378C316.936,217.457,316.766,221.085,315.182,225.17 M255.748,265.643
	c-15.426,0-28.824-11.267-32.514-27.195c-0.672-2.881-1.34-6.204-2.012-9.649c3.506,4.787,9.146,7.941,15.518,7.941
	c9.787,0,17.773-7.377,19.008-16.858c0.092,0,0.092-0.031,0.229-0.031c0.092,0,0.092,0.031,0.275,0.031
	c1.158,9.481,9.223,16.858,19.037,16.858c6.035,0,11.389-2.926,14.895-7.301c-0.58,3.17-1.25,6.234-1.754,8.812
	C284.697,254.376,271.252,265.643,255.748,265.643 M246.373,217.396c0,5.32-4.391,9.649-9.633,9.649
	c-5.365,0-9.648-4.329-9.648-9.649c0-2.24,0-4.786,9.648-4.786C246.373,212.61,246.373,215.156,246.373,217.396 M284.908,217.396
	c0,5.32-4.359,9.649-9.619,9.649c-5.381,0-9.648-4.329-9.648-9.649c0-2.24,0-4.786,9.648-4.786
	C284.908,212.61,284.908,215.156,284.908,217.396 M281.646,189.304c1.418,3.918,3.719,7.438,6.783,9.953
	c1.342,2.287,3.293,4.359,6.051,5.96c0,0.275,0,0.519-0.092,0.854c-0.09,1.25-0.426,3.277-0.854,5.762
	c-2.162-5.854-8.291-8.887-18.246-8.887h-24.402C268.309,198.297,275.959,191.545,281.646,189.304 M196.742,225.17
	c-1.51-4.085-1.676-7.713-0.488-10.121c0.488-0.945,1.404-1.601,2.393-2.21c0.932,6.371,2.684,15.289,4.041,21.828
	C200.432,232.38,198.326,229.255,196.742,225.17 M324.236,210.598c-2.104-3.963-5.641-6.723-10.334-7.85l-0.061,0.198
	c0.408-8.612,0.242-13.063-0.672-20.106c-3.277-24.312-27.926-42.589-57.422-42.589c-29.402,0-54.066,18.276-57.33,42.589
	c-0.916,6.966-1.111,11.388-0.67,19.984c-4.541,1.266-7.957,3.918-10.061,7.773c-2.5,4.924-2.5,11.296,0,17.987
	c4.465,11.508,11.982,17.086,18.551,19.83c7.514,21.753,26.936,36.51,49.51,36.51c22.455,0,41.904-14.635,49.51-36.356
	c6.646-2.712,14.42-8.246,18.979-19.983C326.719,221.894,326.812,215.521,324.236,210.598"/>
<path fill="#206FB6" d="M255.977,295.304L255.977,295.304c3.568,0,6.982-0.229,10.336-0.702l9.115,10.4l-10.182,19.478
	l10.271,28.458c-6.371,0.17-12.895,0.307-19.541,0.307c-6.705,0-13.199-0.137-19.51-0.307l10.334-28.458l-10.273-19.478l9.176-10.4
	C249.027,295.075,252.5,295.304,255.977,295.304"/>
</svg>
