<?xml version="1.0" encoding="utf-8"?>
<!-- Generator: Adobe Illustrator 16.0.4, SVG Export Plug-In . SVG Version: 6.00 Build 0)  -->
<!DOCTYPE svg PUBLIC "-//W3C//DTD SVG 1.1//EN" "http://www.w3.org/Graphics/SVG/1.1/DTD/svg11.dtd">
<svg version="1.1" id="Layer_1" xmlns="http://www.w3.org/2000/svg" xmlns:xlink="http://www.w3.org/1999/xlink" x="0px" y="0px"
	 width="512px" height="512px" viewBox="0 0 512 512" enable-background="new 0 0 512 512" xml:space="preserve">
<path fill="#206FB6" d="M256,503.472c-66.105,0-128.252-25.74-174.992-72.479C34.27,384.253,8.529,322.106,8.529,256.001
	c0-66.106,25.74-128.253,72.479-174.992C127.748,34.27,189.895,8.528,256,8.528s128.252,25.741,174.992,72.48
	c46.738,46.739,72.479,108.886,72.479,174.992c0,66.105-25.74,128.252-72.479,174.991C384.252,477.731,322.105,503.472,256,503.472z
	 M256,21.528c-62.633,0-121.516,24.389-165.799,68.673s-68.672,103.166-68.672,165.8c0,62.633,24.389,121.515,68.672,165.799
	c44.283,44.283,103.166,68.672,165.799,68.672s121.516-24.389,165.799-68.672c44.283-44.284,68.672-103.166,68.672-165.799
	c0-62.634-24.389-121.516-68.672-165.8S318.633,21.528,256,21.528z"/>
<g>
	<path fill="#206FB6" d="M267.025,141.12c7.973,0,14.367,6.448,14.367,14.441c0,7.992-6.395,14.387-14.367,14.387
		c-7.975,0-14.46-6.395-14.46-14.387C252.565,147.568,259.051,141.12,267.025,141.12"/>
	<path fill="#206FB6" d="M238.214,155.562c5.898,0,10.749,4.851,10.749,10.841c0,5.972-4.851,10.822-10.749,10.822
		c-6.135,0-10.985-4.851-10.985-10.822C227.229,160.412,232.079,155.562,238.214,155.562"/>
	<path fill="#206FB6" d="M216.46,169.93c5.018,0,8.966,4.171,8.966,9.168c0,4.924-3.948,9.04-8.966,9.04
		c-4.996,0-9.021-4.116-9.021-9.04C207.439,174.101,211.464,169.93,216.46,169.93"/>
	<path fill="#206FB6" d="M193.07,196.662c0-3.949,3.218-7.073,7.075-7.073c4.115,0,7.313,3.124,7.313,7.073
		c0,4.023-3.198,7.275-7.313,7.275C196.288,203.938,193.07,200.686,193.07,196.662"/>
	<path fill="#206FB6" d="M288.668,278.113c-12.898,7.421-30.684,25.262-21.313,40.254c10.491,16.811,12.495,30.353,12.495,38.198
		c0,0.35,0.146,0.827,0.146,1.177c0,0.623-0.146,1.193-0.146,1.744c-0.203,2.426-0.552,3.823-0.552,3.823
		c-2.83,12.842-15.69,22.544-30.958,22.544s-28.059-9.702-30.887-22.544l-0.698-5.567v-0.146l-12.568-117.885v-5.622
		c0-27.854,25.431-50.618,56.849-50.618c31.38,0,56.938,0,56.938,50.618C317.974,253.107,306.048,269.438,288.668,278.113"/>
	<path fill="#206FB6" d="M318.93,147.808c0,11.87-6.449,21.59-14.46,21.59c-7.901,0-14.423-9.72-14.423-21.59
		c0-12.09,6.521-21.661,14.423-21.661C312.48,126.146,318.93,135.718,318.93,147.808"/>
</g>
<rect x="4" y="6.131" fill="none" width="498.87" height="498.869"/>
</svg>
