<?xml version="1.0" encoding="utf-8"?>
<!-- Generated by IcoMoon.io -->
<!DOCTYPE svg PUBLIC "-//W3C//DTD SVG 1.1//EN" "http://www.w3.org/Graphics/SVG/1.1/DTD/svg11.dtd">
<svg version="1.1" xmlns="http://www.w3.org/2000/svg" xmlns:xlink="http://www.w3.org/1999/xlink" width="512" height="512" viewBox="0 0 512 512">
<g>
</g>
	<path d="M256 0c-97.216 0-176 78.784-176 176 0 64.496 59.008 132.848 80.496 192.88 32.048 89.52 28.496 143.12 95.504 143.12 68 0 63.44-53.344 95.504-142.752 21.552-60.16 80.496-129.248 80.496-193.248 0-97.216-78.816-176-176-176zM297.472 434.816l-79.328 9.904c-2.832-8.192-5.872-17.776-9.568-30.288-0.048-0.16-0.112-0.336-0.144-0.496l99.008-12.368c-1.408 4.72-2.912 9.68-4.224 14.128-2.096 7.184-3.968 13.424-5.744 19.12zM203.776 398.528c-2.912-9.632-6.192-19.776-9.84-30.528h124.256c-1.968 5.744-3.936 11.504-5.632 16.944l-108.784 13.584zM256 480c-16.208 0-23.664-1.872-31.952-20l67.808-8.496c-9.824 26.464-16.976 28.496-35.856 28.496zM330.752 336h-149.328c-7.968-17.28-17.536-34.56-26.976-51.472-20.88-37.36-42.448-76-42.448-108.528 0-79.408 64.592-144 144-144 79.408 0 144 64.592 144 144 0 32.288-21.6 71.136-42.496 108.72-9.344 16.848-18.848 34.096-26.752 51.28zM256 80c4.4 0 8 3.584 8 8s-3.584 8-8 8c-44.112 0-80 35.888-80 80 0 4.416-3.584 8-8 8-4.416 0-8-3.584-8-8 0-52.944 43.056-96 96-96z" fill="#000000"></path>
</svg>
