<?xml version="1.0" encoding="utf-8"?>
<!-- Generated by IcoMoon.io -->
<!DOCTYPE svg PUBLIC "-//W3C//DTD SVG 1.1//EN" "http://www.w3.org/Graphics/SVG/1.1/DTD/svg11.dtd">
<svg version="1.1" xmlns="http://www.w3.org/2000/svg" xmlns:xlink="http://www.w3.org/1999/xlink" width="512" height="512" viewBox="0 0 512 512">
<g>
</g>
	<path d="M256.032 283.936c52.944 0 96-43.072 96-96s-43.056-96-96-96c-52.944 0-96 43.056-96 96s43.056 96 96 96zM256.032 107.936c44.128 0 80 35.872 80 80s-35.872 80-80 80c-44.128 0-80-35.872-80-80s35.872-80 80-80zM256 0c-105.888 0-192 85.056-192 192.016 0 112 96.016 226.576 166.016 307.104 0.256 0.32 11.488 12.88 25.376 12.88 0.032 0 1.168 0 1.232 0 13.872 0 25.12-12.56 25.376-12.88 70.032-80.528 166.032-195.088 166.032-307.104 0-106.96-86.128-192.016-192.032-192.016zM257.872 478.128c-0.336 0.32-1.312 1.024-2.16 1.568-0.16-0.432-1.344-1.376-2.064-2.128-58.64-67.472-157.648-181.344-157.648-285.552 0-88.224 71.792-160.016 160-160.016 88.256 0 160.032 71.792 160.032 160.032 0 104.192-99.008 218.064-158.16 286.096z" fill="#000000"></path>
</svg>
