<?xml version="1.0" encoding="utf-8"?>
<!-- Generator: Adobe Illustrator 16.0.0, SVG Export Plug-In . SVG Version: 6.00 Build 0)  -->
<!DOCTYPE svg PUBLIC "-//W3C//DTD SVG 1.1//EN" "http://www.w3.org/Graphics/SVG/1.1/DTD/svg11.dtd">
<svg version="1.1" id="Layer_1" xmlns="http://www.w3.org/2000/svg" xmlns:xlink="http://www.w3.org/1999/xlink" x="0px" y="0px"
	 width="256px" height="256px" viewBox="0 0 256 256" enable-background="new 0 0 256 256" xml:space="preserve">
<g>
	<path d="M173.342,114.581c-5.869,6.009-47.386,38.905-105.664,65.346c-3.74,1.695-9.357,3.62-17.402,5.532
		c-8.869,2.049-16.163,3.061-21.896,3.061c-17.875,0-26.47-5.723-25.782-17.19c0.123-2.72,1.147-5.521,3.061-8.393
		c5.87-8.995,15.863-17.252,29.991-24.759c14.115-7.507,26.221-10.705,36.326-9.619c0.537,0.414,1.224,0.963,2.048,1.65
		c0.401,0.412,0.475,0.948,0.199,1.637l-0.612,1.849c-0.411,0.55-1.097,1.437-2.046,2.673c-0.551,0.414-2.187,1.773-4.91,4.111
		c-14.877,7.256-32.003,14.65-51.377,22.184c-1.914,1.648-3.41,4.46-4.498,8.421c0.949,6.582,7.433,10.28,19.438,11.104
		c3.546,0.273,9.242-0.251,17.101-1.562c7.831-1.3,12.952-2.984,16.308-4.483c55.435-24.789,100.299-57.4,106.858-63.196
		c0.674-0.687,1.498-0.687,2.448,0C173.892,113.359,174.03,113.896,173.342,114.581z M67.065,134.293
		c0-0.687-1.787-0.824-5.322-0.41c-17.062,4.233-31.041,11.802-41.958,22.721c16.238-6.283,30.554-12.491,42.985-18.626
		C65.629,135.929,67.065,134.692,67.065,134.293z"/>
	<path d="M115.839,159.082c-7.415,6.319-9.93,8.421-11.392,11.932c-1.048,2.518-0.951,3.2-0.894,3.637
		c0.281,2.154,1.708,2.697,2.901,2.652c2.346-0.082,5.019-0.799,7.193-1.471c19.111-5.599,39.161-19.312,60.172-41.147
		c2.997-3.136,5.533-4.498,7.583-4.086c2.86,0.537,3.334,2.187,1.424,4.91c-0.274,0.274-2.662,2.461-7.158,6.545
		c-9.693,11.329-14.527,20.337-14.527,27.018c0,1.502,0.125,2.861,0.398,4.099c1.237,3.41,4.848,4.973,10.854,4.696
		c13.094-0.674,27.895-8.931,44.409-24.759c20.062-19.236,30.354-38.811,30.905-58.733c0.274-9.558-3-15.964-9.82-19.238
		c-4.098-2.049-8.193-3.072-12.278-3.072c-6.284,0-12.493,2.248-18.624,6.757c-5.196,3.674-7.488,5.822-10.93,12.066
		c-0.925,1.678-0.665,1.093-1.752,1.093c-0.824,0.139-1.088-0.352-0.532-1.702c2.31-5.612,3.352-6.629,8.289-12.08
		c6.672-7.365,15.216-10.43,24.361-10.43c5.322,0,10.367,1.36,15.139,4.085c8.471,4.784,12.692,13.04,12.692,24.77
		c0,9.693-2.662,19.851-7.982,30.491c-5.598,11.056-13.842,21.487-24.758,31.317c-19.237,17.19-35.753,25.783-49.53,25.783
		c-2.598,0-5.184-0.276-7.782-0.812c-5.045-1.636-7.907-4.71-8.594-9.219c-0.812-5.17-0.199-10.43,1.85-15.752
		c-7.233,6.01-15.903,11.731-25.995,17.19c-10.106,5.456-17.602,8.531-22.51,9.205c-6.283,0.824-10.307,0.037-12.08-2.351
		c-1.773-2.384-2.578-5.105-1.432-8.916c1.914-6.365,2.529-7.579,26.274-25.865c3.135-2.449,13.711-9.194,15.349-6.597"/>
	<circle cx="184.176" cy="103.319" r="5.083"/>
</g>
</svg>
