<?xml version="1.0" encoding="utf-8"?>
<!-- Generator: Adobe Illustrator 16.0.4, SVG Export Plug-In . SVG Version: 6.00 Build 0)  -->
<!DOCTYPE svg PUBLIC "-//W3C//DTD SVG 1.1//EN" "http://www.w3.org/Graphics/SVG/1.1/DTD/svg11.dtd">
<svg version="1.1" id="Layer_1" xmlns="http://www.w3.org/2000/svg" xmlns:xlink="http://www.w3.org/1999/xlink" x="0px" y="0px"
	 width="512px" height="512px" viewBox="0 0 512 512" enable-background="new 0 0 512 512" xml:space="preserve">
<path d="M402.729,255.35c0-55.33-44.854-100.176-100.184-100.176c-28.178,0-53.609,11.675-71.807,30.418v-0.235
	c-44.867,39.155-81.719,20.43-95.413,10.676c-13.896-12.162-31.878-19.784-51.792-19.784c-43.612,0-78.961,35.345-78.961,78.958
	c0,43.612,35.349,78.966,78.961,78.966c17.148,0,32.895-5.599,45.837-14.882v0.143c53.668-38.249,101.368,5.741,101.368,5.741V325.1
	c18.197,18.742,43.629,30.418,71.807,30.418C357.874,355.518,402.729,310.671,402.729,255.35"/>
<path d="M425.693,255.207c0-22.722,18.432-41.153,41.153-41.153s41.145,18.432,41.145,41.153c0,22.729-18.423,41.153-41.145,41.153
	S425.693,277.937,425.693,255.207"/>
<rect x="4.576" y="155.173" fill="none" width="503.424" height="200.344"/>
</svg>
