<?xml version="1.0" encoding="utf-8"?>
<!-- Generated by IcoMoon.io -->
<!DOCTYPE svg PUBLIC "-//W3C//DTD SVG 1.1//EN" "http://www.w3.org/Graphics/SVG/1.1/DTD/svg11.dtd">
<svg version="1.1" xmlns="http://www.w3.org/2000/svg" xmlns:xlink="http://www.w3.org/1999/xlink" width="512" height="512" viewBox="0 0 512 512">
<g>
</g>
	<path d="M467.088 84.24c-58.064-57.536-150.912-58.736-211.056-4.608-60.16-54.128-152.976-52.928-211.072 4.608-59.856 59.264-59.856 155.344 0 214.64 17.104 16.944 176.848 175.056 176.848 175.056 18.928 18.752 49.536 18.752 68.448 0 0 0 174.912-173.152 176.848-175.056 59.872-59.296 59.872-155.376-0.016-214.64zM444.288 276.288l-176.848 175.056c-6.288 6.256-16.544 6.256-22.8 0l-176.848-175.056c-47.2-46.72-47.2-122.736 0-169.456 45.504-45.040 118.656-46.624 166.544-3.552l21.696 19.52 21.68-19.52c47.904-43.072 121.056-41.504 166.56 3.552 47.2 46.704 47.2 122.72 0.016 169.456zM148.048 120.016c4.432 0 8 3.584 8 8s-3.584 8-8 8h-0.016c-28.704 0-51.984 23.28-51.984 51.984v0.016c0 4.416-3.584 8-8 8s-8-3.584-8-8v0c0-37.536 30.416-67.952 67.936-67.984 0.032 0 0.032-0.016 0.064-0.016z" fill="#000000"></path>
</svg>
