<?xml version="1.0" encoding="utf-8"?>
<!-- Generated by IcoMoon.io -->
<!DOCTYPE svg PUBLIC "-//W3C//DTD SVG 1.1//EN" "http://www.w3.org/Graphics/SVG/1.1/DTD/svg11.dtd">
<svg version="1.1" xmlns="http://www.w3.org/2000/svg" xmlns:xlink="http://www.w3.org/1999/xlink" width="512" height="512" viewBox="0 0 512 512">
<g>
</g>
	<path d="M464 0h-352c-26.512 0-48 21.472-48 48v32h-16c-26.512 0-48 21.472-48 48v320c0 35.344 28.656 64 64 64h384c35.344 0 64-28.656 64-64v-400c0-26.528-21.504-48-48-48zM480 448c0 17.632-14.368 32-32 32h-384c-17.648 0-32-14.368-32-32v-320c0-8.832 7.168-16 16-16h16v320c0 8.848 7.152 16 16 16s16-7.152 16-16v-384c0-8.832 7.168-16 16-16h352c8.816 0 16 7.168 16 16v400zM311.968 208.080c-4.4 0-8-3.584-8-8s3.6-8 8-8h128c4.432 0 8 3.584 8 8s-3.568 8-8 8h-128zM311.968 160.080c-4.4 0-8-3.584-8-8s3.6-8 8-8h128c4.432 0 8 3.584 8 8s-3.568 8-8 8h-128zM311.968 112.080c-4.4 0-8-3.584-8-8s3.6-8 8-8h128c4.432 0 8 3.584 8 8s-3.568 8-8 8h-128zM264 432.064c4.416 0 8 3.6 8 8 0 4.432-3.6 8-8 8h-128c-4.416 0-8-3.568-8-8 0-4.4 3.584-8 8-8h128zM264 384.064c4.416 0 8 3.6 8 8 0 4.432-3.6 8-8 8h-128c-4.416 0-8-3.568-8-8 0-4.4 3.584-8 8-8h128zM264 336.064c4.416 0 8 3.6 8 8 0 4.432-3.6 8-8 8h-128c-4.416 0-8-3.568-8-8 0-4.4 3.584-8 8-8h128zM440 432.064c4.4 0 8 3.6 8 8 0 4.432-3.6 8-8 8h-128c-4.432 0-8-3.568-8-8 0-4.4 3.568-8 8-8h128zM440 384.064c4.4 0 8 3.6 8 8 0 4.432-3.6 8-8 8h-128c-4.432 0-8-3.568-8-8 0-4.4 3.568-8 8-8h128zM440 336.064c4.4 0 8 3.6 8 8 0 4.432-3.6 8-8 8h-128c-4.432 0-8-3.568-8-8 0-4.4 3.568-8 8-8h128zM440 240.064c4.4 0 8 3.584 8 8s-3.6 8-8 8h-304c-4.416 0-8-3.584-8-8s3.584-8 8-8h304zM440 288.064c4.4 0 8 3.6 8 8 0 4.432-3.6 8-8 8h-304c-4.416 0-8-3.568-8-8 0-4.4 3.584-8 8-8h304zM144 208h112c8.848 0 16-7.152 16-16v-111.936c0-8.848-7.152-16-16-16h-112c-8.848 0-16 7.152-16 16v111.936c0 8.832 7.152 16 16 16zM160 96h80v80h-80v-80z" fill="#000000"></path>
</svg>
