<?xml version="1.0" encoding="utf-8"?>
<!-- Generated by IcoMoon.io -->
<!DOCTYPE svg PUBLIC "-//W3C//DTD SVG 1.1//EN" "http://www.w3.org/Graphics/SVG/1.1/DTD/svg11.dtd">
<svg version="1.1" xmlns="http://www.w3.org/2000/svg" xmlns:xlink="http://www.w3.org/1999/xlink" width="512" height="512" viewBox="0 0 512 512">
<g>
</g>
	<path d="M486.256 202.88l-49.024-9.824c-2.464-7.088-5.376-13.968-8.592-20.624l27.776-41.664c8.464-12.688 6.784-29.6-4-40.368l-30.784-30.784c-6.192-6.192-14.368-9.376-22.656-9.376-6.128 0-12.32 1.76-17.712 5.376l-41.664 27.76c-6.688-3.232-13.568-6.112-20.656-8.576l-9.824-49.040c-2.976-14.976-16.128-25.728-31.376-25.728h-43.52c-15.248 0-28.384 10.768-31.376 25.728l-9.824 49.040c-7.088 2.464-13.968 5.36-20.624 8.576l-41.648-27.76c-5.424-3.616-11.6-5.376-17.744-5.376-8.272 0-16.448 3.184-22.64 9.376l-30.768 30.784c-10.784 10.784-12.464 27.68-4 40.368l27.76 41.664c-3.232 6.672-6.112 13.552-8.576 20.64l-49.056 9.808c-14.96 2.992-25.728 16.128-25.728 31.376v43.52c0 15.248 10.768 28.4 25.728 31.376l49.040 9.84c2.464 7.088 5.36 13.968 8.576 20.624l-27.744 41.664c-8.464 12.688-6.784 29.6 4 40.368l30.784 30.784c6.192 6.192 14.368 9.376 22.64 9.376 6.144 0 12.336-1.776 17.728-5.376l41.664-27.776c6.672 3.248 13.552 6.128 20.64 8.592l9.808 49.024c2.992 14.976 16.128 25.744 31.376 25.744h43.52c15.248 0 28.4-10.784 31.376-25.744l9.84-49.024c7.088-2.464 13.968-5.376 20.624-8.592l41.664 27.776c5.408 3.6 11.6 5.376 17.712 5.376 8.288 0 16.464-3.184 22.656-9.376l30.784-30.784c10.784-10.784 12.464-27.68 4-40.368l-27.776-41.664c3.248-6.688 6.128-13.568 8.592-20.656l49.024-9.808c14.96-2.96 25.744-16.128 25.744-31.376v-43.52c0-15.248-10.784-28.384-25.744-31.376zM430.944 287.6c-11.12 2.224-20.224 10.16-23.936 20.88-2.064 5.904-4.464 11.632-7.152 17.184-4.976 10.224-4.128 22.288 2.16 31.712l27.776 41.664-30.784 30.784-41.664-27.776c-5.344-3.568-11.536-5.376-17.744-5.376-4.752 0-9.536 1.056-13.936 3.184-5.568 2.688-11.28 5.12-17.216 7.184-10.688 3.712-18.624 12.816-20.848 23.936l-9.84 49.056h-43.52l-9.808-49.056c-2.224-11.12-10.16-20.224-20.864-23.936-5.904-2.064-11.648-4.464-17.2-7.152-4.416-2.16-9.184-3.216-13.952-3.216-6.224 0-12.4 1.808-17.744 5.376l-41.664 27.776-30.784-30.784 27.76-41.664c6.288-9.44 7.104-21.504 2.192-31.68-2.688-5.568-5.104-11.28-7.168-17.216-3.712-10.688-12.832-18.624-23.936-20.848l-49.040-9.84-0.032-43.536 49.056-9.808c11.104-2.224 20.224-10.16 23.936-20.864 2.064-5.904 4.448-11.648 7.152-17.2 4.96-10.208 4.128-22.272-2.176-31.696l-27.744-41.664 30.768-30.784 41.664 27.76c5.344 3.568 11.536 5.376 17.744 5.376 4.752 0 9.52-1.056 13.936-3.184 5.552-2.688 11.28-5.104 17.2-7.168 10.704-3.712 18.64-12.832 20.864-23.936l9.824-49.040 43.52-0.016 9.808 49.056c2.224 11.104 10.16 20.224 20.88 23.936 5.904 2.064 11.632 4.448 17.184 7.152 4.432 2.144 9.184 3.2 13.968 3.2 6.224 0 12.4-1.808 17.744-5.376l41.664-27.76 30.784 30.784-27.776 41.664c-6.288 9.44-7.088 21.488-2.192 31.68 2.688 5.552 5.12 11.28 7.184 17.2 3.712 10.704 12.816 18.64 23.936 20.864l49.024 9.824 0.048 43.52-49.056 9.824zM256 144.016c-61.84 0-112 50.16-112 112 0 61.856 50.16 112 112 112s112-50.16 112-112c0-61.84-50.16-112-112-112zM256 354.032c-54.112 0-98-43.904-98-98 0-54.112 43.888-98 98-98 54.096 0 98 43.888 98 98 0 54.096-43.904 98-98 98zM256 192.016c-35.36 0-64 28.64-64 64 0 35.344 28.64 64 64 64 35.344 0 64-28.656 64-64 0-35.344-28.656-64-64-64zM256 304.032c-26.496 0-48-21.504-48-48 0-26.496 21.504-48 48-48s48 21.504 48 48c0 26.496-21.504 48-48 48z" fill="#000000"></path>
</svg>
