<?xml version="1.0" encoding="utf-8"?>
<!-- Generator: Adobe Illustrator 16.0.4, SVG Export Plug-In . SVG Version: 6.00 Build 0)  -->
<!DOCTYPE svg PUBLIC "-//W3C//DTD SVG 1.1//EN" "http://www.w3.org/Graphics/SVG/1.1/DTD/svg11.dtd">
<svg version="1.1" id="Layer_1" xmlns="http://www.w3.org/2000/svg" xmlns:xlink="http://www.w3.org/1999/xlink" x="0px" y="0px"
	 width="512px" height="512px" viewBox="0 0 512 512" enable-background="new 0 0 512 512" xml:space="preserve">
<path d="M464.227,438.706l-86.054-97.88c-2.108-2.348-5.021-3.723-8.059-3.885c-3.077-0.404-6.19,0.851-8.579,3.074l-40.438,36.837
	c-34.168-16.839-70.232-48.898-99.984-89.297c-29.628-40.235-49.589-84.356-55.293-122l47.155-27.526
	c2.711-1.619,4.739-4.169,5.426-7.207c0.85-2.995,0.366-6.151-1.255-8.904L149.424,10.684c-3.193-5.424-10.201-7.124-15.704-4.129
	l-30.4,17.083L87.86,33.189c-0.853,0.404-1.541,0.971-2.229,1.7c-4.494,4.534-8.746,9.554-12.47,14.654
	c-51.975,71.808-31.004,195.755,51.978,308.689c67.436,91.645,157.22,148.679,234.247,148.679c15.83,0,30.847-2.39,44.934-7.084
	c6.03-2.188,11.898-4.614,17.607-7.531c1.01-0.401,1.782-0.929,2.471-1.616l38.979-35.947
	C468.032,450.524,468.398,443.4,464.227,438.706"/>
</svg>
