<?xml version="1.0" encoding="utf-8"?>
<!-- Generated by IcoMoon.io -->
<!DOCTYPE svg PUBLIC "-//W3C//DTD SVG 1.1//EN" "http://www.w3.org/Graphics/SVG/1.1/DTD/svg11.dtd">
<svg version="1.1" xmlns="http://www.w3.org/2000/svg" xmlns:xlink="http://www.w3.org/1999/xlink" width="512" height="512" viewBox="0 0 512 512">
<g>
</g>
	<path d="M400 0c-32.848 0-58.656 22.56-77.184 57.376l-0.336-0.192c-26.912 52.688-66.976 86.816-110.864 86.816h-147.616c-35.888 0-64 35.152-64 80 0 44.88 28.112 80 64 80 17.648 0.064 31.92 14.336 31.92 32v144c0 17.68 14.336 32 32 32h64c17.664 0 32-14.32 32-32v-16c0-16-16-23.152-16-32v-112c0-0.368 0.256-0.624 0.288-0.992 0.16-2.288 0.784-4.4 1.792-6.32 0.288-0.528 0.592-0.944 0.944-1.408 1.28-1.904 2.896-3.472 4.864-4.688 0.096-0.064 0.128-0.16 0.224-0.224 0.064 0 0.112-0.064 0.176-0.064 1.28-0.72 2.816-0.88 4.256-1.28 40.384 4.288 76.944 36.88 102.032 85.968l0.4-0.192c18.544 34.704 44.288 57.2 77.104 57.2 73.536 0 112-112.688 112-224s-38.464-224-112-224zM320 224c0-16.592 0.976-32.624 2.624-48h45.376c17.664 0 32 21.504 32 48 0 26.528-14.336 48-32 48h-45.376c-1.648-15.376-2.624-31.376-2.624-48zM32 224c0-26.496 14.336-48 32-48h112.224c-9.92 11.664-16.224 28.592-16.224 48 0 19.44 6.304 36.368 16.224 48h-112.224c-17.664 0-32-21.472-32-48zM191.92 480h-64v-144c0-11.664-3.12-22.56-8.592-32h11.168v0.192h48.128c-1.712 4.976-2.704 10.256-2.704 15.808v112c0 15.408 8.608 25.664 13.744 31.776 0.704 0.848 1.536 1.712 2.256 2.656v13.568zM211.616 272.192h-3.616v-0.192c-17.664 0-32-21.472-32-48 0-26.496 14.336-48 32-48h3.616c30.176 0 58.432-11.872 83.296-32.288-4.576 25.76-6.912 53.040-6.912 80.288 0 27.344 2.336 54.72 6.944 80.496-24.88-20.432-53.152-32.304-83.328-32.304zM400 416c-32.288 0-60-45.936-72.656-112h40.656c35.872 0 64-35.12 64-80 0-44.848-28.128-80-64-80h-40.656c12.656-66.032 40.368-112 72.656-112 44.192 0 80 85.968 80 192s-35.808 192-80 192z" fill="#000000"></path>
</svg>
