<?xml version="1.0" encoding="utf-8"?>
<!-- Generated by IcoMoon.io -->
<!DOCTYPE svg PUBLIC "-//W3C//DTD SVG 1.1//EN" "http://www.w3.org/Graphics/SVG/1.1/DTD/svg11.dtd">
<svg version="1.1" xmlns="http://www.w3.org/2000/svg" xmlns:xlink="http://www.w3.org/1999/xlink" width="512" height="512" viewBox="0 0 512 512">
<g>
</g>
	<path d="M469.344 48h-69.344v-32c0-8.848-7.152-16-16-16s-16 7.152-16 16v32h-96v-32c0-8.848-7.168-16-16-16s-16 7.152-16 16v32h-96v-32c0-8.848-7.168-16-16-16s-16 7.152-16 16v32h-69.328c-23.568 0-42.672 19.088-42.672 42.656v378.672c0 23.568 19.104 42.672 42.672 42.672h426.672c23.568 0 42.656-19.104 42.656-42.672v-378.672c0-23.568-19.088-42.656-42.656-42.656zM480 469.328c0 5.888-4.784 10.672-10.656 10.672h-426.672c-5.888 0-10.672-4.784-10.672-10.672v-378.672c0-5.872 4.784-10.656 10.672-10.656h69.328v32c0 8.848 7.168 16 16 16s16-7.152 16-16v-32h96v32c0 8.848 7.168 16 16 16s16-7.152 16-16v-32h96v32c0 8.848 7.152 16 16 16s16-7.152 16-16v-32h69.344c5.872 0 10.656 4.784 10.656 10.656v378.672zM112 192h64v48h-64zM112 272h64v48h-64zM112 352h64v48h-64zM224 352h64v48h-64zM224 272h64v48h-64zM224 192h64v48h-64zM336 352h64v48h-64zM336 272h64v48h-64zM336 192h64v48h-64z" fill="#000000"></path>
</svg>
