<?xml version="1.0" standalone="no"?>
<!DOCTYPE svg PUBLIC "-//W3C//DTD SVG 1.1//EN" "http://www.w3.org/Graphics/SVG/1.1/DTD/svg11.dtd" >
<svg xmlns="http://www.w3.org/2000/svg">
<metadata>
Created by FontForge 20120731 at Mon Jan  4 21:06:40 2016
 By Matteo Papadopoulos
</metadata>
<defs>
<font id="icons" horiz-adv-x="512" >
  <font-face 
    font-family="icons"
    font-weight="500"
    font-stretch="normal"
    units-per-em="512"
    panose-1="2 0 6 9 0 0 0 0 0 0"
    ascent="448"
    descent="-64"
    bbox="-0.111111 -64 512.111 448"
    underline-thickness="25"
    underline-position="-52"
    unicode-range="U+F101-F11D"
  />
<missing-glyph 
d="M17 0v341h136v-341h-136zM34 17h102v307h-102v-307z" />
    <glyph glyph-name=".notdef" 
d="M17 0v341h136v-341h-136zM34 17h102v307h-102v-307z" />
    <glyph glyph-name=".null" horiz-adv-x="0" 
 />
    <glyph glyph-name="nonmarkingreturn" 
 />
    <glyph glyph-name="uniF101" unicode="&#xf101;" 
d="M158 273l98 -98l98 98l30 -30l-128 -128l-128 128z" />
    <glyph glyph-name="uniF102" unicode="&#xf102;" 
d="M329 100l-30 -31l-128 128l128 128l30 -30l-98 -98z" />
    <glyph glyph-name="uniF103" unicode="&#xf103;" 
d="M183 97l98 98l-98 97l30 31l128 -128l-128 -128z" />
    <glyph glyph-name="uniF104" unicode="&#xf104;" 
d="M158 119l-30 30l128 128l128 -128l-30 -30l-98 98z" />
    <glyph glyph-name="uniF105" unicode="&#xf105;" 
d="M505 445q8 -5 7 -16l-80 -480q-2 -7 -8 -11q-4 -2 -8 -2q-3 0 -6 1l-155 62l-33 -55q-5 -8 -14 -8t-14 8l-59 103l-125 50q-9 4 -10 13.5t7 14.5l480 320q4 3 9 3t9 -3zM50 116l97 -39q1 -1 2.5 -2l1.5 -1l270 289zM163 63l45 -78l258 403zM403 -26l64 383l-210 -326
q6 -1 10 -2z" />
    <glyph glyph-name="uniF106" unicode="&#xf106;" 
d="M256 -55q-103 0 -175 72t-72 175t72 175t175 72t175 -72t72 -175t-72 -175t-175 -72zM256 426q-97 0 -165.5 -68.5t-68.5 -165.5t68.5 -165.5t165.5 -68.5t165.5 68.5t68.5 165.5t-68.5 165.5t-165.5 68.5zM4 -57v499h499v-499h-499zM333.5 254q-7.5 -8 -15.5 0t0 15.5
t15.5 0t0 -15.5zM333.5 223q-7.5 -8 -15.5 0t0 15.5t15.5 0t0 -15.5zM306 196l-54 -54q-4 -4 -8 0l-39 38q-3 4 0 8l55 54q4 4 8 0l38 -38q4 -4 0 -8zM225 114.5q-8 -7.5 -15.5 0t0 15.5t15.5 0t0 -15.5zM287 269.5q8 7.5 15.5 0t0 -15.5t-15.5 0t0 15.5zM194 145.5
q-8 -7.5 -16 0t0 15.5t16 0t0 -15.5zM194 114.5q-8 -7.5 -16 -0.5q-8 8 0 16t16 0t0 -15.5zM349 285q-16 16 -38.5 16t-39.5 -16l-108 -109q-16 -16 -16 -38.5t16 -38.5t38.5 -16t38.5 16l109 109q16 16 16 38.5t-16 38.5v0zM172 198l-9 10q-16 16 -16 38.5t16 38.5t38.5 16
t38.5 -16l10 -9l-13 -13l-9 9q-11 11 -26.5 11t-26 -11t-10.5 -26t11 -26l9 -9zM340 186l9 -10q16 -16 16 -38.5t-16 -38.5t-38.5 -16t-39.5 16l-9 9l13 13l9 -9q11 -11 26.5 -11t26 10.5t10.5 26t-11 26.5l-9 9zM147 83v218h218v-218h-218z" />
    <glyph glyph-name="uniF107" unicode="&#xf107;" 
d="M192 103l226 226l30 -30l-256 -256l-119 119l30 30z" />
    <glyph glyph-name="uniF108" unicode="&#xf108;" 
d="M405 341h-298v-298h298v298zM405 384q18 0 30.5 -12.5t12.5 -30.5v-298q0 -18 -12.5 -30.5t-30.5 -12.5h-298q-18 0 -30.5 12.5t-12.5 30.5v298q0 18 12.5 30.5t30.5 12.5h298z" />
    <glyph glyph-name="uniF109" unicode="&#xf109;" 
d="M405 384q18 0 30.5 -12.5t12.5 -30.5v-298q0 -12 -5.5 -22t-15.5 -15.5t-22 -5.5h-298q-18 0 -30.5 12.5t-12.5 30.5v298q0 18 12.5 30.5t30.5 12.5h298zM213 85l192 192l-30 31l-162 -162l-76 76l-30 -30z" />
    <glyph glyph-name="uniF10A" unicode="&#xf10a;" 
d="M256 -60q51 0 97.5 20t80.5 54t54 80.5t20 97.5q0 104 -74 178t-178 74t-178 -74t-74 -178t74 -178t178 -74zM256 -47q-99 0 -169 70t-70 169t70 169t169 70t169 -70t70 -169t-70 -169t-169 -70zM256 -53q-101 0 -173 71.5t-72 173.5q0 67 33 123t89 89t123 33
q101 0 173 -72t72 -173.5t-72 -173t-173 -71.5v0zM193 50q6 0 10 4l148 133l-158 143q-11 10 -21 -1t1 -21l134 -121l-124 -111q-11 -10 -1 -21q5 -5 11 -5z" />
    <glyph glyph-name="uniF10B" unicode="&#xf10b;" 
d="M405 311l-119 -119l119 -119l-30 -30l-119 119l-119 -119l-30 30l119 119l-119 119l30 30l119 -119l119 119z" />
    <glyph glyph-name="uniF10C" unicode="&#xf10c;" 
d="M256 -55q-103 0 -175 72t-72 175t72 175t175 72t175 -72t72 -175t-72 -175t-175 -72zM256 426q-97 0 -165.5 -68.5t-68.5 -165.5t68.5 -165.5t165.5 -68.5t165.5 68.5t68.5 165.5t-68.5 165.5t-165.5 68.5zM4 -57v499h499v-499h-499zM309 98l17 13q4 2 2 6l-8 16l7 7
q3 3 0 7q12 -8 17 -17q6 -13 8 -24q-10 -5 -43 -8zM311 153l6 -9l-7 -6q-2 -3 0 -6l7 -16l-26 -19q-4 -1 -9 -1zM168 130q5 9 17 17q-3 -4 0 -7l7 -7l-8 -16q-2 -4 2 -6l17 -13q-33 3 -43 8q2 11 8 24zM230 96q-4 0 -9 1l-26 19l7 16q2 3 0 6l-7 6l6 9zM361 138
q-13 26 -51 37q-7 3 -11 -4l-39 -75h-8l-39 75q-4 7 -11 4q-38 -11 -51 -37q-11 -21 -11 -35q0 -25 106 -27h1h9h9h1q106 2 106 27q0 14 -11 35v0zM315 223q-2 -6 -6 -10q2 13 4 22q2 -1 3 -2q2 -4 -1 -10zM256 182q-12 0 -21 8t-12 20q-1 3 -2 9q6 -8 16 -8q7 0 12.5 5
t6.5 12v0q1 -7 6.5 -12t12.5 -5q9 0 15 8q0 -2 -0.5 -5.5t-1.5 -3.5q-1 -8 -6 -14.5t-12 -10t-14 -3.5zM246 231q0 -10 -9.5 -10t-9.5 10q0 4 9.5 4t9.5 -4zM285 231q0 -10 -9.5 -10t-9.5 10q0 4 9.5 4t9.5 -4zM282 259q2 -7 6 -10q3 -4 6 -6v-1v-6q-4 9 -19 9h-24q8 2 14 5
t10.5 5.5t6.5 3.5zM197 223q-3 6 -1 10q1 1 3 2q1 -8 4 -22q-4 4 -6 10zM324 237q-3 7 -10 8q0 11 -1 20q-2 18 -18.5 30.5t-38.5 12.5t-38.5 -12.5t-19.5 -30.5q-1 -9 0 -20q-7 -2 -10 -8q-4 -7 0 -18q5 -14 18 -19q4 -11 11.5 -19.5t17.5 -13t21 -4.5q17 0 30.5 10
t18.5 26q14 6 19 20q4 11 0 18v0zM256 153h10l9 -10l-10 -19l11 -29h-20h-20l11 29l-10 19l9 10h10v0z" />
    <glyph glyph-name="uniF10D" unicode="&#xf10d;" 
d="M256 -55q-103 0 -175 72t-72 175t72 175t175 72t175 -72t72 -175t-72 -175t-175 -72zM256 426q-97 0 -165.5 -68.5t-68.5 -165.5t68.5 -165.5t165.5 -68.5t165.5 68.5t68.5 165.5t-68.5 165.5t-165.5 68.5zM267 307q6 0 10 -4.5t4 -10.5t-4 -10t-10 -4t-10 4t-4 10
t4 10.5t10 4.5v0zM238 292q2 0 4 -0.5t3.5 -2t2.5 -3.5t1 -4q0 -3 -1.5 -5.5t-4 -4t-5.5 -1.5q-4 0 -7.5 3t-3.5 7.5t3.5 7.5t7.5 3v0zM216 278q9 0 9 -9t-9 -9t-9 9t9 9v0zM193 251q0 7 7 7t7 -7t-7 -7t-7 7v0zM289 170q-12 -7 -20 -18.5t-2 -21.5q13 -20 13 -39v-1v-1
l-1 -4q-1 -7 -5.5 -12t-11 -8t-14.5 -3q-11 0 -19.5 6.5t-11.5 16.5v5l-13 118v6q0 21 16.5 36t40.5 15q15 0 22.5 -1t17 -5.5t13.5 -15.5t4 -29q0 -29 -29 -44v0zM319 300q0 -3 -0.5 -5.5t-1.5 -5t-2.5 -4.5t-3 -3.5t-3.5 -2t-4 -0.5q-5 0 -9.5 6t-4.5 15t4.5 15.5t10 6.5
t10 -6.5t4.5 -15.5v0zM4 -57v499h499v-499h-499z" />
    <glyph glyph-name="uniF10E" unicode="&#xf10e;" 
d="M43 117h426v-42h-426v42zM43 224h426v-43h-426v43zM43 331h426v-43h-426v43z" />
    <glyph glyph-name="uniF10F" unicode="&#xf10f;" 
d="M256 448q73 0 124.5 -51.5t51.5 -124.5q0 -28 -15 -62t-36.5 -72t-28.5 -59q-8 -20 -16 -48.5t-12.5 -41.5t-13.5 -27.5t-21.5 -20t-32.5 -5.5t-32.5 5.5t-21 20t-13.5 27.5t-13 41.5t-16 48.5q-7 22 -28.5 59.5t-36.5 71.5t-15 62q0 73 51.5 124.5t124.5 51.5zM297 13
q3 8 6 19q1 3 2.5 8t1.5 6l-99 -12h1q5 -18 9 -31zM204 49l109 14q1 6 5 17h-124q6 -17 10 -31zM256 -32q11 0 16 1.5t10 7.5t10 19l-68 -8q6 -13 12.5 -16.5t19.5 -3.5zM331 112q8 18 27 51q42 77 42 109q0 60 -42 102t-102 42t-102 -42t-42 -102q0 -33 42 -109
q19 -33 27 -51h150zM256 368q8 0 8 -8t-8 -8q-33 0 -56.5 -23.5t-23.5 -56.5q0 -8 -8 -8t-8 8q0 40 28 68t68 28z" />
    <glyph glyph-name="uniF110" unicode="&#xf110;" 
d="M256 164q-40 0 -68 28t-28 68t28 68t68 28q20 0 37.5 -7.5t30.5 -20.5t20.5 -30.5t7.5 -37.5q0 -40 -28 -68t-68 -28zM256 340q-33 0 -56.5 -23.5t-23.5 -56.5t23.5 -56.5t56.5 -23.5t56.5 23.5t23.5 56.5t-23.5 56.5t-56.5 23.5zM256 448q80 0 136 -56t56 -136
q0 -32 -11 -68t-26.5 -65t-40.5 -64.5t-43 -57t-45 -52.5q-10 -13 -25 -13h-2q-15 0 -25 13q-34 39 -56.5 68t-51.5 72t-43.5 85t-14.5 82q0 53 25.5 97t70 69.5t96.5 25.5zM258 -30q32 37 51 61t48.5 66t44 82t14.5 77q0 66 -47 113t-113 47t-113 -47t-47 -113
q0 -37 14.5 -77t43.5 -82t48.5 -66t51.5 -61h1q1 -1 1 -2z" />
    <glyph glyph-name="uniF111" unicode="&#xf111;" 
d="M403 193q0 27 -13.5 50t-36.5 36.5t-50 13.5q-43 0 -72 -31v1q-50 -44 -96 -11q-22 20 -51 20q-22 0 -40 -10.5t-28.5 -29t-10.5 -39.5q0 -33 23 -56t56 -23q25 0 45 15q28 16 50.5 15t36.5 -11l15 -10q29 -31 72 -31q41 0 70.5 29.5t29.5 71.5v0zM426 193q0 17 12 29
t29 12t29 -12t12 -29t-12 -29t-29 -12t-29 12t-12 29v0zM5 92v201h503v-201h-503z" />
    <glyph glyph-name="uniF112" unicode="&#xf112;" 
d="M167 402q0 11 -5.5 20.5t-15 15t-20.5 5.5q-18 0 -30 -12q-20 -18 -39 -5q-9 9 -21 9q-13 0 -22.5 -9.5t-9.5 -23t9.5 -23t22.5 -9.5q10 0 19 6q11 7 20.5 6.5t14.5 -4.5l6 -4q12 -13 30 -13q8 0 15.5 3.5t13 9t9 13t3.5 15.5v0zM176 402q0 7 5 12t12 5t12 -5t5 -12
t-5 -12t-12 -5q-3 0 -6.5 1.5t-5.5 4t-3.5 5.5t-1.5 6v0zM252 426q0 -3 -2 -4t-5 -1h-2v10h2q4 0 5.5 -1t1.5 -4zM259 426q0 -3 -1 -5t-3 -3t-4.5 -1.5t-5.5 -0.5h-2v-12h-6v32h8q3 0 5.5 -0.5t4.5 -2t3 -3t1 -4.5v0zM278 409q-2 0 -4 1t-3 2.5t-1.5 3.5t-0.5 4.5t0.5 4.5
t1.5 3.5t3 2t4 0.5t4 -0.5t3 -2t1.5 -3.5t0.5 -4.5t-0.5 -4.5t-1.5 -3.5t-3 -2.5t-4 -1zM294 420q0 -3 -1 -6t-3 -5.5t-5 -3.5t-7 -1t-7 1t-5 3.5t-3 5.5t-1 6.5t1 6.5t3 5t5 3.5t7 1.5t7 -1.5t5 -3.5t3 -5t1 -7v0zM309 409q3 0 5 1t3.5 2.5t2.5 3.5t1 4.5t-1 4.5t-2.5 3
t-3.5 2t-5 1h-3v-22h3zM299 436h10q4 0 7.5 -1t6 -3.5t4 -5t1.5 -6t-1.5 -6.5t-4 -5t-6 -3.5t-7.5 -1.5h-10v32zM347 409q-2 0 -4 1t-3 2.5t-1.5 3.5t-0.5 4.5t0.5 4.5t1.5 3.5t3 2t4.5 0.5t4 -0.5t2.5 -2t2 -3.5t1 -4.5t-1 -4.5t-2 -3.5t-3 -2.5t-4 -1zM363 420q0 -3 -1 -6
t-3 -5.5t-5 -3.5t-7 -1t-7 1t-5 3.5t-3 5.5t-1 6.5t1 6.5t3 5t5 3.5t7 1.5t7 -1.5t5 -3.5t3 -5t1 -7v0zM368 436h7v-27h12v-5h-19v32zM405.5 409q-2.5 0 -4.5 1t-3 2.5t-1.5 3.5t-0.5 4.5t0.5 4.5t1.5 3.5t3 2t4.5 0.5t4 -0.5t3 -2t2 -3.5t0.5 -4.5t-0.5 -4.5t-2 -3.5
t-3 -2.5t-4 -1zM421 420q0 -3 -1 -6t-3 -5.5t-5 -3.5t-6.5 -1t-6.5 1t-5.5 3.5t-3.5 5.5t-1 6.5t1 6.5t3.5 5t5 3.5t6.5 1.5t7 -1.5t5 -3.5t3 -5t1 -7v0zM443 437q2 0 4.5 -0.5t5.5 -1.5l-1 -5q-2 0 -4.5 0.5t-5 0.5t-4.5 -0.5t-3.5 -2t-2 -3.5t-0.5 -5q0 -6 2.5 -8.5
t8.5 -2.5h2.5h1.5v10h7v-13q-3 -1 -6 -1.5t-6 -0.5q-4 0 -7 1t-5.5 3t-3.5 5t-1 7t1 7t3.5 5t5.5 3.5t8 1.5v0zM460 404v32h7v-32h-7zM487 431l-5 -15h10zM483 436h8l12 -32h-7l-2 7h-13l-3 -7h-7zM261 362v32h7v-32h-7zM290 366q-2 0 -4 1t-3 2.5t-1.5 3.5t-0.5 4.5
t0.5 4.5t1.5 3.5t3 2.5t4 1t4 -1t3 -2.5t1.5 -3.5t0.5 -4.5t-0.5 -4.5t-1.5 -3.5t-3 -2.5t-4 -1zM306 378q0 -4 -1 -7t-3 -5t-5 -3.5t-7 -1.5t-7 1.5t-5 3.5t-3 5t-1 6.5t1 6.5t3 5.5t5 3.5t7 1t7 -1t5 -3.5t3 -5.5t1 -6v0zM328 384q0 -3 -2 -4.5t-6 -1.5h-2v10h3q3 0 5 -1
t2 -3zM335 384q0 -3 -2 -5.5t-6 -3.5l11 -13h-8l-10 11h-2v-11h-7v32h10q3 0 5.5 -0.5t4.5 -2t3 -3.5t1 -4v0zM341 394h20v-6h-13v-7h12v-6h-12v-8h13v-5h-20v32zM388 394h7v-32h-7l-15 21v-21h-6v32h6l15 -21v21zM399 394h25v-6h-9v-26h-7v26h-9v6zM428 362v32h7v-32h-7z
M463 394h7v-32h-7l-14 21v-21h-7v32h7l14 -21v21zM490 388l-5 -14h10zM487 394h7l12 -32h-7l-2 6h-13l-3 -6h-7zM15 342h-1.5h-1.5h-2t-2 -1t-1.5 -2t-0.5 -2.5t0.5 -2.5t1.5 -2t2 -1.5t2 -0.5h1.5t1.5 1v-1l-1 -0.5t-2 -0.5q-2 0 -3 0.5t-2 1.5t-1.5 2.5t-0.5 3t0.5 2.5
t1.5 2t2 1.5t3 0.5h2h1v-1zM26 343h7v-1h-6v-5h5v-1h-5v-6h6h-7v13zM52 343h1v-13h-1l-8 12v-12h-1v13h1l8 -12v12zM63 343h9v-1h-4v-12h-1v12h-4v1zM89 339.5q0 -0.5 -0.5 -1.5t-1 -1t-1.5 -0.5t-2 -0.5h-1v6h2h1.5t1 -0.5l1 -1t0.5 -1zM90 339q0 -1 -1 -2t-3 -1l5 -6h-1
l-5 6q0 -1 -1 -1h-1v-5h-1v13h3q1 0 2 -0.5t1.5 -0.5t1 -1t0.5 -2v0zM112 336.5q0 -1.5 -0.5 -2.5l-1 -2t-1.5 -1.5t-2.5 -0.5t-2.5 0.5t-1.5 1.5l-1 2t-0.5 2.5t0.5 2.5t1 1.5t1.5 1t2.5 0.5t2.5 -0.5t1.5 -1t1 -1.5t0.5 -2.5zM113 336q0 -1 -0.5 -2.5t-1.5 -2t-2 -1.5
t-2.5 -1t-2.5 1t-2 1.5t-1.5 2t-0.5 3t0.5 2.5t1.5 2t2 1.5t2.5 0.5t2.5 -0.5t2 -1.5t1.5 -2t0.5 -3v0zM142 339.5v-1.5t-1 -1t-1.5 -0.5t-1.5 -0.5h-1v6h1h2t1.5 -0.5t0.5 -1v-1zM143 339q0 -1 -1 -2t-2 -1l4 -6h-1l-4 6l-1 -1h-1v-5h-1v13h3l1 -0.5t1.5 -0.5t1 -1t0.5 -2
v0zM155 330v13v-13zM171 342l-3 -8h6zM171 343h1l5 -13h-1l-1 3h-7l-1 -3h-1zM194 333.5v1t-1 1t-1.5 0.5h-1.5h-2v-6h2q1 0 2 0.5t1.5 1t0.5 1v1zM194 339.5q0 0.5 -0.5 1l-1 1t-1 0.5h-0.5h-3v-5h2h1.5t1 0.5l1 1t0.5 1zM195 333l-0.5 -1t-1 -1.5t-1.5 -0.5h-2h-3v13h4
q1 0 1.5 -0.5t1 -0.5t1 -0.5t0.5 -1.5t-1 -2t-2 -1l1 -0.5t1.5 -1t0.5 -1v-1.5v0zM206 330v13h1v-13h-1zM218 343h1v-13h6h-7v13zM235 330v13h1v-13h-1zM246 343h9v-1h-4v-12h-1v12h-4v1zM268 342l-3 -8h6zM268 343l6 -13h-1l-2 3h-6l-1 -3h-1zM282 343h9v-1h-4v-12h-1v12
h-4v1zM301 330v13h1v-13h-1zM321 343h1l-5 -13h-1l-4 13l5 -12zM343 336.5q0 -1.5 -0.5 -2.5l-1 -2t-1.5 -1.5t-2.5 -0.5t-2.5 0.5t-1.5 1.5l-1 2t-0.5 2.5t0.5 2.5t1 1.5t1.5 1t2.5 0.5t2.5 -0.5t1.5 -1t1 -1.5t0.5 -2.5zM343 336v-2.5t-1 -2t-2 -1.5t-2.5 -1t-2.5 1
t-2 1.5t-1.5 2t-0.5 3t0.5 2.5t1.5 2t2 1.5t2.5 0.5t2.5 -0.5t2 -1.5t1 -2v-3v0zM376 336.5q0 -1.5 -0.5 -2.5t-1.5 -2t-2 -1.5t-3 -0.5h-2v12h2q2 0 3 -0.5l2 -1t1.5 -1.5t0.5 -2.5zM377 336q0 -1 -0.5 -2.5t-1.5 -2t-2.5 -1t-3.5 -0.5h-3v13h3q2 0 3.5 -0.5t2.5 -1.5
t1.5 -2t0.5 -3v0zM387 343h7v-1h-6v-5h6v-1h-6v-6h6h-7v13zM405 343h1v-13h5h-6v13zM440 339q0 -1 -0.5 -1.5l-1 -1t-1 -0.5h-1.5h-2v6h2h1.5t1 -0.5l1 -1t0.5 -1.5zM441 339q0 -1 -0.5 -1.5l-1 -1t-1.5 -1t-2 -0.5h-2v-5v13h2q1 0 2 -0.5t1.5 -1l1 -1t0.5 -1.5v0zM451 330
v13h1v-13h-1zM463 343h7v-1h-6v-5h6v-1h-6v-6h6h-7v13zM490 336.5q0 -1.5 -0.5 -2.5t-1.5 -2t-2 -1.5t-2 -0.5h-2v12h2q1 0 2 -0.5l2 -1t1.5 -1.5t0.5 -2.5zM491 336q0 -1 -0.5 -2.5t-1.5 -2t-2.5 -1t-2.5 -0.5h-3v13h3q1 0 2.5 -0.5t2.5 -1.5t1.5 -2t0.5 -3v0zM502 343h6
v-1h-6v-5h6v-1h-6v-6h6h-6v13zM236 394h19v-6h-12v-8h12v-6h-12v-12h-7v32z" />
    <glyph glyph-name="uniF113" unicode="&#xf113;" 
d="M347 219q-9 -9 -33.5 -27.5t-75 -49t-103.5 -54.5q-13 -6 -34 -11q-27 -6 -44 -6q-54 0 -52 34q1 8 6 17q18 27 60.5 49.5t72.5 19.5q2 -2 4 -3q1 -2 0 -4l-1 -3q0 -1 -4 -6q-2 -1 -10 -8q-44 -22 -102 -44q-6 -5 -9 -17q2 -20 38 -22q11 -1 35 3q20 3 32 9q72 32 134 71
t80 55q2 2 5 0q3 -1 1 -3zM134 179q0 2 -11 1q-51 -12 -83 -45q48 19 86 37q8 6 8 7zM232 130q-20 -17 -23 -24q-2 -5 -2 -7q1 -6 6 -6q5 1 14 3q58 17 121 83q9 9 15 8q8 -2 3 -10q-1 -1 -15 -13q-29 -34 -29 -54q0 -5 1 -8q4 -11 22 -10q39 2 89 50q60 57 61 117
q1 29 -19 39q-13 6 -25 6q-19 0 -37 -14q-14 -10 -22 -24q-1 -2 -3 -2q-3 0 -1 3q4 11 16 25q19 20 49 20q16 0 30 -8q26 -14 26 -49q0 -29 -16 -61q-17 -33 -50 -63q-58 -51 -99 -51q-8 0 -16 1q-15 5 -17 19q-2 15 4 31q-22 -18 -52 -34.5t-45 -18.5q-19 -2 -24 5
q-6 8 -3 18t10.5 17.5t41.5 34.5q8 5 18.5 10.5t12.5 2.5zM358 241.5q0 10.5 10.5 10.5t10.5 -10.5t-10.5 -10.5t-10.5 10.5z" />
    <glyph glyph-name="uniF114" unicode="&#xf114;" 
d="M427 363q17 0 29.5 -12.5t12.5 -30.5v-256q0 -18 -12.5 -30.5t-29.5 -12.5h-342q-11 0 -21 6t-15.5 15.5t-5.5 21.5v256q0 18 12.5 30.5t29.5 12.5h342zM427 277v43l-171 -107l-171 107v-43l171 -106z" />
    <glyph glyph-name="uniF115" unicode="&#xf115;" 
d="M467 364q45 -45 45 -107.5t-45 -107.5l-177 -175q-14 -14 -34 -14t-34 14q-4 3 -9.5 9t-22.5 22.5t-32.5 32t-35.5 35t-35 34.5l-27 27l-15 15q-45 45 -45 107.5t45 107.5q43 43 104.5 44t106.5 -40q45 41 106.5 40t104.5 -44zM444 172q36 35 36 84.5t-36 84.5
q-34 34 -82 35t-84 -31l-22 -20l-22 20q-36 32 -84 31t-82 -35q-36 -35 -36 -84.5t36 -84.5l177 -175q11 -12 22 0zM148 328q8 0 8 -8t-8 -8q-21 0 -36.5 -15t-15.5 -37q0 -8 -8 -8t-8 8q0 28 20 48t48 20z" />
    <glyph glyph-name="uniF116" unicode="&#xf116;" 
d="M464 448q20 0 34 -14t14 -34v-400q0 -27 -18.5 -45.5t-45.5 -18.5h-384q-27 0 -45.5 18.5t-18.5 45.5v320q0 20 14 34t34 14h16v32q0 20 14 34t34 14h352zM480 0v400q0 7 -4.5 11.5t-11.5 4.5h-352q-7 0 -11.5 -4.5t-4.5 -11.5v-384q0 -7 -4.5 -11.5t-11.5 -4.5
t-11.5 4.5t-4.5 11.5v320h-16q-7 0 -11.5 -4.5t-4.5 -11.5v-320q0 -13 9.5 -22.5t22.5 -9.5h384q13 0 22.5 9.5t9.5 22.5zM312 240q-8 0 -8 8t8 8h128q8 0 8 -8t-8 -8h-128zM312 288q-8 0 -8 8t8 8h128q8 0 8 -8t-8 -8h-128zM312 336q-8 0 -8 8t8 8h128q8 0 8 -8t-8 -8h-128
zM264 16q8 0 8 -8t-8 -8h-128q-8 0 -8 8t8 8h128zM264 64q8 0 8 -8t-8 -8h-128q-8 0 -8 8t8 8h128zM264 112q8 0 8 -8t-8 -8h-128q-8 0 -8 8t8 8h128zM440 16q8 0 8 -8t-8 -8h-128q-8 0 -8 8t8 8h128zM440 64q8 0 8 -8t-8 -8h-128q-8 0 -8 8t8 8h128zM440 112q8 0 8 -8
t-8 -8h-128q-8 0 -8 8t8 8h128zM440 208q8 0 8 -8t-8 -8h-304q-8 0 -8 8t8 8h304zM440 160q8 0 8 -8t-8 -8h-304q-8 0 -8 8t8 8h304zM144 240q-7 0 -11.5 4.5t-4.5 11.5v112q0 7 4.5 11.5t11.5 4.5h112q7 0 11.5 -4.5t4.5 -11.5v-112q0 -7 -4.5 -11.5t-11.5 -4.5h-112z
M160 352v-80h80v80h-80z" />
    <glyph glyph-name="uniF117" unicode="&#xf117;" 
d="M486 245q11 -2 18.5 -11t7.5 -20v-44q0 -11 -7.5 -20t-18.5 -11l-49 -10q-3 -10 -8 -21l27 -41q7 -10 6 -21.5t-10 -19.5l-30 -30q-10 -10 -23 -10q-10 0 -18 6l-41 27q-11 -5 -21 -8l-10 -49q-2 -11 -11 -18.5t-20 -7.5h-44q-11 0 -20 7t-11 19l-10 49q-10 3 -21 8
l-41 -27q-8 -6 -18 -6q-13 0 -23 10l-30 30q-8 8 -9.5 19.5t5.5 21.5l27 41q-5 11 -8 21l-49 10q-11 2 -18.5 11t-7.5 20v44q0 7 3.5 14t9 11.5t13.5 5.5l49 10q3 10 8 21l-27 41q-7 10 -5.5 21.5t9.5 19.5l30 30q10 10 23 10q10 0 18 -6l41 -27q11 5 21 8l10 49
q1 8 5.5 13.5t11.5 9t14 3.5h44q7 0 14 -3.5t11.5 -9t5.5 -13.5l10 -49q10 -3 21 -8l41 27q8 6 18 6q13 0 23 -10l30 -30q9 -8 10 -19.5t-6 -21.5l-27 -41q5 -11 8 -21zM431 160l49 10v44l-49 10q-18 3 -24 20q-3 9 -7 18q-8 16 2 31l28 42l-31 31l-42 -28q-8 -5 -17 -5
q-8 0 -14 3q-9 4 -18 7q-17 6 -20 24l-10 49h-44l-10 -49q-3 -18 -20 -24q-9 -3 -18 -7q-6 -3 -14 -3q-9 0 -17 5l-42 28l-31 -31l28 -42q10 -15 2 -31q-4 -9 -7 -18q-6 -17 -24 -20l-49 -10v-44l49 -10q18 -3 24 -20q3 -9 7 -18q8 -16 -2 -31l-28 -42l31 -31l42 28
q8 5 17 5q8 0 14 -3q9 -4 18 -7q17 -6 20 -24l10 -49h44l10 49q3 18 20 24q9 3 18 7q6 3 14 3q9 0 17 -5l42 -28l31 31l-28 42q-10 15 -2 31q4 9 7 18q6 17 24 20zM256 304q46 0 79 -33t33 -79t-33 -79t-79 -33t-79 33t-33 79t33 79t79 33zM256 94q41 0 69.5 28.5t28.5 69.5
q0 27 -13 49.5t-35.5 35.5t-49.5 13q-41 0 -69.5 -28.5t-28.5 -69.5t28.5 -69.5t69.5 -28.5zM256 256q27 0 45.5 -19t18.5 -45q0 -13 -5 -25t-13.5 -20.5t-20.5 -13.5t-25 -5q-27 0 -45.5 18.5t-18.5 45.5t18.5 45.5t45.5 18.5zM256 144q20 0 34 14t14 34t-14 34t-34 14
t-34 -14t-14 -34t14 -34t34 -14z" />
    <glyph glyph-name="uniF118" unicode="&#xf118;" 
d="M464 9l-86 98q-3 4 -8 4q-5 1 -8 -3l-41 -37q-54 27 -100 89.5t-55 121.5l47 28q4 3 5 7q2 5 -1 9l-68 111q-5 10 -15 4l-31 -17l-15 -9l-2 -2q-7 -7 -13 -15q-39 -53 -24.5 -138t76.5 -170q34 -46 73.5 -79.5t81 -51.5t79.5 -18q24 0 45 7q10 4 18 8q1 0 2 1l39 36
q9 8 1 16v0z" />
    <glyph glyph-name="uniF119" unicode="&#xf119;" 
d="M400 448q52 0 82 -67t30 -157t-30 -157t-82 -67q-47 0 -77 57h-1q-40 79 -102 86q-3 -1 -4 -1v-1q-3 -1 -5 -4q-1 -1 -1 -2q-2 -3 -2 -6v-1v-112q0 -4 8 -13.5t8 -18.5v-16q0 -13 -9.5 -22.5t-22.5 -9.5h-64q-13 0 -22.5 9.5t-9.5 22.5v144q0 9 -4.5 16t-11.5 11.5
t-16 4.5q-27 0 -45.5 23t-18.5 57t18.5 57t45.5 23h148q32 0 61 23t49 64h1q30 57 77 57zM320 224q0 -24 3 -48h45q13 0 22.5 14t9.5 34t-9.5 34t-22.5 14h-45q-3 -24 -3 -48zM32 224q0 -20 9.5 -34t22.5 -14h112q-16 19 -16 48t16 48h-112q-13 0 -22.5 -14t-9.5 -34z
M192 -32v14l-1 1l-1 1q-14 17 -14 32v112q0 8 3 16h-49h-11q9 -15 9 -32v-144h64zM212 176q44 0 83 -32q-7 38 -7 80q0 41 7 80q-39 -32 -83 -32h-4q-13 0 -22.5 -14t-9.5 -34t9.5 -34t22.5 -14h4zM400 32q33 0 56.5 56t23.5 136t-23.5 136t-56.5 56q-24 0 -43.5 -31
t-29.5 -81h41q27 0 45.5 -23t18.5 -57t-18.5 -57t-45.5 -23h-41q10 -50 29.5 -81t43.5 -31z" />
    <glyph glyph-name="uniF11A" unicode="&#xf11a;" 
d="M112 224q47 0 79.5 -33t32.5 -79t-32.5 -79t-79 -33t-79.5 33t-33 79v16q0 93 65.5 158.5t158.5 65.5v-64q-66 0 -113 -47q-9 -9 -16 -18q9 1 17 1zM400 224q47 0 79.5 -33t32.5 -79t-32.5 -79t-79 -33t-79.5 33t-33 79v16q0 93 65.5 158.5t158.5 65.5v-64
q-66 0 -113 -47q-9 -9 -16 -18q9 1 17 1z" />
    <glyph glyph-name="uniF11B" unicode="&#xf11b;" 
d="M256 405q88 0 150.5 -62.5t62.5 -150.5t-62.5 -150.5t-150.5 -62.5t-150.5 62.5t-62.5 150.5t62.5 150.5t150.5 62.5zM256 21q71 0 121 50t50 121t-50 121t-121 50t-121 -50t-50 -121t50 -121t121 -50z" />
    <glyph glyph-name="uniF11C" unicode="&#xf11c;" 
d="M256 299q44 0 75.5 -31.5t31.5 -75.5t-31.5 -75.5t-75.5 -31.5t-75.5 31.5t-31.5 75.5t31.5 75.5t75.5 31.5zM256 405q88 0 150.5 -62.5t62.5 -150.5t-62.5 -150.5t-150.5 -62.5t-150.5 62.5t-62.5 150.5t62.5 150.5t150.5 62.5zM256 21q71 0 121 50t50 121t-50 121
t-121 50t-121 -50t-50 -121t50 -121t121 -50z" />
    <glyph glyph-name="uniF11D" unicode="&#xf11d;" 
d="M469 400q18 0 30.5 -12.5t12.5 -30.5v-378q0 -12 -5.5 -22t-15.5 -15.5t-22 -5.5h-426q-18 0 -30.5 12.5t-12.5 30.5v378q0 18 12.5 30.5t30.5 12.5h69v32q0 7 4.5 11.5t11.5 4.5t11.5 -4.5t4.5 -11.5v-32h96v32q0 7 4.5 11.5t11.5 4.5t11.5 -4.5t4.5 -11.5v-32h96v32
q0 7 4.5 11.5t11.5 4.5t11.5 -4.5t4.5 -11.5v-32h69zM480 -21v378q0 5 -3 8t-8 3h-69v-32q0 -7 -4.5 -11.5t-11.5 -4.5t-11.5 4.5t-4.5 11.5v32h-96v-32q0 -7 -4.5 -11.5t-11.5 -4.5t-11.5 4.5t-4.5 11.5v32h-96v-32q0 -7 -4.5 -11.5t-11.5 -4.5t-11.5 4.5t-4.5 11.5v32h-69
q-5 0 -8 -3t-3 -8v-378q0 -5 3 -8t8 -3h426q5 0 8 3t3 8zM112 256h64v-48h-64v48zM112 176h64v-48h-64v48zM112 96h64v-48h-64v48zM224 96h64v-48h-64v48zM224 176h64v-48h-64v48zM224 256h64v-48h-64v48zM336 96h64v-48h-64v48zM336 176h64v-48h-64v48zM336 256h64v-48h-64
v48z" />
  </font>
</defs>
</svg>
